<mxfile host="app.diagrams.net" agent="Mozilla/5.0 (X11; Linux x86_64; rv:137.0) Gecko/20100101 Firefox/137.0" version="26.2.14">
  <diagram id="C5RBs43oDa-KdzZeNtuy" name="Page-1">
    <mxGraphModel dx="667" dy="463" grid="1" gridSize="10" guides="1" tooltips="1" connect="1" arrows="1" fold="1" page="1" pageScale="1" pageWidth="827" pageHeight="1169" math="0" shadow="0">
      <root>
        <mxCell id="WIyWlLk6GJQsqaUBKTNV-0" />
        <mxCell id="WIyWlLk6GJQsqaUBKTNV-1" parent="WIyWlLk6GJQsqaUBKTNV-0" />
        <mxCell id="Gem_tT-EbzgTew3gCTa0-18" style="edgeStyle=orthogonalEdgeStyle;rounded=0;orthogonalLoop=1;jettySize=auto;html=1;entryX=0;entryY=0.333;entryDx=0;entryDy=0;entryPerimeter=0;strokeColor=light-dark(#000000,#FF9933);" edge="1" parent="WIyWlLk6GJQsqaUBKTNV-1" source="Gem_tT-EbzgTew3gCTa0-0" target="Gem_tT-EbzgTew3gCTa0-3">
          <mxGeometry relative="1" as="geometry">
            <mxPoint x="500" y="220" as="targetPoint" />
            <Array as="points">
              <mxPoint x="440" y="100" />
              <mxPoint x="440" y="220" />
            </Array>
          </mxGeometry>
        </mxCell>
        <mxCell id="Gem_tT-EbzgTew3gCTa0-21" style="edgeStyle=orthogonalEdgeStyle;rounded=0;orthogonalLoop=1;jettySize=auto;html=1;entryX=0;entryY=0.5;entryDx=0;entryDy=0;strokeColor=light-dark(#000000,#FF9933);" edge="1" parent="WIyWlLk6GJQsqaUBKTNV-1" source="Gem_tT-EbzgTew3gCTa0-0" target="Gem_tT-EbzgTew3gCTa0-2">
          <mxGeometry relative="1" as="geometry" />
        </mxCell>
        <mxCell id="Gem_tT-EbzgTew3gCTa0-0" value="EKF x &lt;br&gt;prediction step" style="rounded=1;whiteSpace=wrap;html=1;" vertex="1" parent="WIyWlLk6GJQsqaUBKTNV-1">
          <mxGeometry x="270" y="70" width="120" height="60" as="geometry" />
        </mxCell>
        <mxCell id="Gem_tT-EbzgTew3gCTa0-20" style="edgeStyle=orthogonalEdgeStyle;rounded=0;orthogonalLoop=1;jettySize=auto;html=1;entryX=0;entryY=0.5;entryDx=0;entryDy=0;strokeColor=light-dark(#000000,#FFFF33);fontColor=light-dark(#000000,#FF33FF);labelBackgroundColor=none;" edge="1" parent="WIyWlLk6GJQsqaUBKTNV-1" source="Gem_tT-EbzgTew3gCTa0-1" target="Gem_tT-EbzgTew3gCTa0-3">
          <mxGeometry relative="1" as="geometry">
            <Array as="points">
              <mxPoint x="410" y="230" />
              <mxPoint x="410" y="230" />
            </Array>
          </mxGeometry>
        </mxCell>
        <mxCell id="Gem_tT-EbzgTew3gCTa0-1" value="EKF θ &lt;br&gt;prediction step" style="rounded=1;whiteSpace=wrap;html=1;" vertex="1" parent="WIyWlLk6GJQsqaUBKTNV-1">
          <mxGeometry x="270" y="200" width="120" height="60" as="geometry" />
        </mxCell>
        <mxCell id="Gem_tT-EbzgTew3gCTa0-2" value="EKF x &lt;br&gt;correction step" style="rounded=1;whiteSpace=wrap;html=1;" vertex="1" parent="WIyWlLk6GJQsqaUBKTNV-1">
          <mxGeometry x="490" y="70" width="120" height="60" as="geometry" />
        </mxCell>
        <mxCell id="Gem_tT-EbzgTew3gCTa0-3" value="EKF θ &lt;br&gt;correction step" style="rounded=1;whiteSpace=wrap;html=1;" vertex="1" parent="WIyWlLk6GJQsqaUBKTNV-1">
          <mxGeometry x="490" y="200" width="120" height="60" as="geometry" />
        </mxCell>
        <mxCell id="Gem_tT-EbzgTew3gCTa0-37" style="edgeStyle=orthogonalEdgeStyle;rounded=0;orthogonalLoop=1;jettySize=auto;html=1;entryX=-0.008;entryY=0.672;entryDx=0;entryDy=0;entryPerimeter=0;strokeColor=light-dark(#000000,#FFFF33);fontColor=none;labelBackgroundColor=none;noLabel=1;" edge="1" parent="WIyWlLk6GJQsqaUBKTNV-1" target="Gem_tT-EbzgTew3gCTa0-2">
          <mxGeometry relative="1" as="geometry">
            <mxPoint x="415" y="110" as="targetPoint" />
            <mxPoint x="420" y="230" as="sourcePoint" />
            <Array as="points">
              <mxPoint x="420" y="110" />
            </Array>
          </mxGeometry>
        </mxCell>
        <mxCell id="Gem_tT-EbzgTew3gCTa0-12" style="edgeStyle=orthogonalEdgeStyle;rounded=0;orthogonalLoop=1;jettySize=auto;html=1;endArrow=none;startFill=1;startArrow=classic;strokeColor=light-dark(#000000,#007FFF);" edge="1" parent="WIyWlLk6GJQsqaUBKTNV-1" source="Gem_tT-EbzgTew3gCTa0-10">
          <mxGeometry relative="1" as="geometry">
            <mxPoint x="100" y="165" as="targetPoint" />
          </mxGeometry>
        </mxCell>
        <mxCell id="Gem_tT-EbzgTew3gCTa0-10" value="" style="strokeWidth=1;html=1;shape=mxgraph.flowchart.annotation_2;align=left;labelPosition=right;pointerEvents=1;strokeColor=light-dark(#000000,#007FFF);" vertex="1" parent="WIyWlLk6GJQsqaUBKTNV-1">
          <mxGeometry x="200" y="100" width="50" height="130" as="geometry" />
        </mxCell>
        <mxCell id="Gem_tT-EbzgTew3gCTa0-13" value="u(k)" style="text;html=1;align=center;verticalAlign=middle;resizable=0;points=[];autosize=1;strokeColor=none;fillColor=none;fontColor=light-dark(#000000,#66B2FF);" vertex="1" parent="WIyWlLk6GJQsqaUBKTNV-1">
          <mxGeometry x="100" y="140" width="40" height="30" as="geometry" />
        </mxCell>
        <mxCell id="Gem_tT-EbzgTew3gCTa0-15" style="edgeStyle=orthogonalEdgeStyle;rounded=0;orthogonalLoop=1;jettySize=auto;html=1;entryX=1;entryY=0;entryDx=0;entryDy=0;entryPerimeter=0;startArrow=classicThin;startFill=1;endArrow=none;strokeColor=light-dark(#000000,#007FFF);" edge="1" parent="WIyWlLk6GJQsqaUBKTNV-1" source="Gem_tT-EbzgTew3gCTa0-0" target="Gem_tT-EbzgTew3gCTa0-10">
          <mxGeometry relative="1" as="geometry" />
        </mxCell>
        <mxCell id="Gem_tT-EbzgTew3gCTa0-16" style="edgeStyle=orthogonalEdgeStyle;rounded=0;orthogonalLoop=1;jettySize=auto;html=1;entryX=1;entryY=1;entryDx=0;entryDy=0;entryPerimeter=0;endArrow=none;startFill=1;startArrow=classic;strokeColor=light-dark(#000000,#007FFF);" edge="1" parent="WIyWlLk6GJQsqaUBKTNV-1" source="Gem_tT-EbzgTew3gCTa0-1" target="Gem_tT-EbzgTew3gCTa0-10">
          <mxGeometry relative="1" as="geometry" />
        </mxCell>
        <mxCell id="Gem_tT-EbzgTew3gCTa0-25" style="edgeStyle=orthogonalEdgeStyle;rounded=0;orthogonalLoop=1;jettySize=auto;html=1;strokeColor=light-dark(#000000,#00CC00);" edge="1" parent="WIyWlLk6GJQsqaUBKTNV-1" source="Gem_tT-EbzgTew3gCTa0-24">
          <mxGeometry relative="1" as="geometry">
            <mxPoint x="700" y="165" as="targetPoint" />
          </mxGeometry>
        </mxCell>
        <mxCell id="Gem_tT-EbzgTew3gCTa0-24" value="" style="strokeWidth=1;html=1;shape=mxgraph.flowchart.annotation_2;align=left;labelPosition=right;pointerEvents=1;rotation=180;strokeColor=light-dark(#000000,#00CC00);" vertex="1" parent="WIyWlLk6GJQsqaUBKTNV-1">
          <mxGeometry x="610" y="100" width="50" height="130" as="geometry" />
        </mxCell>
        <mxCell id="Gem_tT-EbzgTew3gCTa0-29" value="x&lt;sup&gt;-&lt;/sup&gt;(k)" style="text;html=1;align=center;verticalAlign=middle;resizable=0;points=[];autosize=1;strokeColor=none;fillColor=none;fontColor=light-dark(#000000,#FFB366);" vertex="1" parent="WIyWlLk6GJQsqaUBKTNV-1">
          <mxGeometry x="430" y="150" width="50" height="30" as="geometry" />
        </mxCell>
        <mxCell id="Gem_tT-EbzgTew3gCTa0-30" value="x&lt;sup&gt;+&lt;/sup&gt;(k)" style="text;html=1;align=center;verticalAlign=middle;resizable=0;points=[];autosize=1;strokeColor=none;fillColor=none;fontColor=light-dark(#000000,#66FF66);" vertex="1" parent="WIyWlLk6GJQsqaUBKTNV-1">
          <mxGeometry x="640" y="140" width="50" height="30" as="geometry" />
        </mxCell>
        <mxCell id="Gem_tT-EbzgTew3gCTa0-31" value="θ&lt;sup&gt;+&lt;/sup&gt;(k)" style="text;html=1;align=center;verticalAlign=middle;resizable=0;points=[];autosize=1;strokeColor=none;fillColor=none;fontColor=light-dark(#000000,#66FF66);" vertex="1" parent="WIyWlLk6GJQsqaUBKTNV-1">
          <mxGeometry x="640" y="160" width="50" height="30" as="geometry" />
        </mxCell>
        <mxCell id="Gem_tT-EbzgTew3gCTa0-34" value="θ&lt;sup&gt;+&lt;/sup&gt;(k-1)" style="text;html=1;align=center;verticalAlign=middle;resizable=0;points=[];autosize=1;strokeColor=none;fillColor=none;fontColor=light-dark(#000000,#66B2FF);" vertex="1" parent="WIyWlLk6GJQsqaUBKTNV-1">
          <mxGeometry x="130" y="160" width="60" height="30" as="geometry" />
        </mxCell>
        <mxCell id="Gem_tT-EbzgTew3gCTa0-35" value="x&lt;sup&gt;+&lt;/sup&gt;(k-1)" style="text;html=1;align=center;verticalAlign=middle;resizable=0;points=[];autosize=1;strokeColor=none;fillColor=none;fontColor=light-dark(#000000,#66B2FF);" vertex="1" parent="WIyWlLk6GJQsqaUBKTNV-1">
          <mxGeometry x="130" y="140" width="60" height="30" as="geometry" />
        </mxCell>
        <mxCell id="Gem_tT-EbzgTew3gCTa0-36" value="&lt;div&gt;y(k)&lt;/div&gt;" style="text;html=1;align=center;verticalAlign=middle;resizable=0;points=[];autosize=1;strokeColor=none;fillColor=none;fontColor=light-dark(#000000,#66FF66);" vertex="1" parent="WIyWlLk6GJQsqaUBKTNV-1">
          <mxGeometry x="645" y="180" width="40" height="30" as="geometry" />
        </mxCell>
        <mxCell id="Gem_tT-EbzgTew3gCTa0-38" value="θ&lt;sup&gt;-&lt;/sup&gt;(k)" style="text;html=1;align=center;verticalAlign=middle;resizable=0;points=[];autosize=1;strokeColor=none;fillColor=none;fontColor=light-dark(#000000,#FFFF99);" vertex="1" parent="WIyWlLk6GJQsqaUBKTNV-1">
          <mxGeometry x="380" y="150" width="50" height="30" as="geometry" />
        </mxCell>
        <mxCell id="Gem_tT-EbzgTew3gCTa0-40" style="edgeStyle=orthogonalEdgeStyle;rounded=0;orthogonalLoop=1;jettySize=auto;html=1;entryX=1;entryY=0.667;entryDx=0;entryDy=0;entryPerimeter=0;strokeColor=light-dark(#000000,#FFFF33);fontColor=none;labelBackgroundColor=none;noLabel=1;" edge="1" parent="WIyWlLk6GJQsqaUBKTNV-1" target="Gem_tT-EbzgTew3gCTa0-0">
          <mxGeometry relative="1" as="geometry">
            <mxPoint x="482" y="110" as="targetPoint" />
            <mxPoint x="413" y="230" as="sourcePoint" />
            <Array as="points">
              <mxPoint x="420" y="230" />
              <mxPoint x="420" y="110" />
            </Array>
          </mxGeometry>
        </mxCell>
      </root>
    </mxGraphModel>
  </diagram>
</mxfile>
